<?xml version="1.0" standalone="no"?><!DOCTYPE svg PUBLIC "-//W3C//DTD SVG 1.1//EN" "http://www.w3.org/Graphics/SVG/1.1/DTD/svg11.dtd"><svg t="1663421606309" class="icon" viewBox="0 0 1024 1024" version="1.1" xmlns="http://www.w3.org/2000/svg" p-id="1287" xmlns:xlink="http://www.w3.org/1999/xlink" width="200" height="200"><path d="M301.96 511.32c-31 0-56.2 25.2-56.2 56.18 0 31 25.2 56.2 56.2 56.2 30.98 0 56.18-25.2 56.18-56.2 0-30.98-25.2-56.18-56.18-56.18z m0 92.38c-19.96 0-36.2-16.24-36.2-36.2 0-19.94 16.24-36.18 36.2-36.18 19.94 0 36.18 16.24 36.18 36.18 0 19.96-16.24 36.2-36.18 36.2z" fill="#23130D" p-id="1288"></path><path d="M722.64 611.1c-1.96 1.94-4.52 2.92-7.08 2.92-2.56 0-5.12-0.98-7.06-2.92l-166.06-166.06a10.006 10.006 0 0 1 0-14.14 10.006 10.006 0 0 1 14.14 0l166.06 166.06a10.006 10.006 0 0 1 0 14.14zM754.04 579.7c-1.94 1.94-4.5 2.92-7.06 2.92-2.56 0-5.12-0.98-7.08-2.92l-166.06-166.06a10.006 10.006 0 0 1 0-14.14 10.006 10.006 0 0 1 14.14 0l166.06 166.06a9.97 9.97 0 0 1 0 14.14z" fill="#FFFFFF" p-id="1289"></path><path d="M992.18 860.36h-33.06V333.88v-0.02c0-43.8-35.64-79.44-79.44-79.44h-108.02a110.636 110.636 0 0 0 23.6-119.14c-0.26-0.62-0.56-1.24-0.96-1.82-0.74-1.12-1.68-2.06-2.78-2.78-0.26-0.18-0.56-0.3-0.86-0.46-0.28-0.16-0.54-0.32-0.84-0.44-0.32-0.14-0.64-0.22-0.94-0.3-0.32-0.1-0.6-0.22-0.92-0.28-0.28-0.06-0.56-0.06-0.84-0.1-0.36-0.04-0.72-0.1-1.1-0.1-0.28 0-0.58 0.06-0.86 0.08-0.36 0.02-0.7 0.04-1.06 0.1-1.28 0.24-2.52 0.74-3.64 1.48-0.58 0.38-1.1 0.8-1.56 1.28l-73.76 73.74-41.36-41.38 73.74-73.74c0.48-0.48 0.9-0.98 1.26-1.56 0.76-1.12 1.26-2.38 1.5-3.66 0.06-0.28 0.06-0.56 0.08-0.84 0.04-0.36 0.1-0.72 0.1-1.08-0.02-0.34-0.06-0.66-0.1-0.98-0.04-0.32-0.04-0.64-0.1-0.94-0.08-0.32-0.18-0.6-0.28-0.9-0.1-0.32-0.16-0.64-0.3-0.96-0.14-0.32-0.32-0.62-0.48-0.94-0.14-0.24-0.26-0.52-0.42-0.76a9.826 9.826 0 0 0-4.56-3.72v-0.02a110.652 110.652 0 0 0-119.98 24.36c-25.14 25.14-36.52 60.38-31.1 95.28l-66.92 60.58h-73.3l-107.42-107.4-18-46.8a10.004 10.004 0 0 0-5.14-5.48L256.44 68.8a10.018 10.018 0 0 0-11.28 2l-31.42 31.4a10.03 10.03 0 0 0-2 11.28l25.94 55.94c1.1 2.36 3.06 4.2 5.48 5.12l46.8 18.02 61.86 61.86H144.32c-33.32 0-61.9 20.64-73.68 49.78a79.14 79.14 0 0 0-5.76 29.66v526.5H31.82c-5.52 0-10 4.48-10 10v43.08c0 3.82 2.18 7.32 5.64 9l71.04 34.44c1.36 0.66 2.86 1 4.38 1h818.24c1.52 0 3.02-0.34 4.38-1l71.06-34.44a10.022 10.022 0 0 0 5.62-9v-43.08c0-5.52-4.46-10-10-10z m-391.52-655.4c0.1-0.08 0.16-0.18 0.24-0.26 0.22-0.22 0.4-0.44 0.6-0.66 0.24-0.28 0.48-0.56 0.68-0.86 0.16-0.22 0.26-0.44 0.4-0.66 0.2-0.34 0.38-0.68 0.54-1.04 0.1-0.24 0.18-0.48 0.26-0.72 0.12-0.36 0.24-0.72 0.32-1.08 0.06-0.28 0.08-0.56 0.12-0.84 0.04-0.36 0.1-0.72 0.1-1.08 0-0.28-0.02-0.56-0.04-0.84-0.02-0.38-0.04-0.76-0.12-1.14-0.02-0.1 0-0.18-0.02-0.28-6.3-30.12 2.92-61.08 24.64-82.8a90.67 90.67 0 0 1 83.28-24.58l-69.1 69.1a10.006 10.006 0 0 0 0 14.14l55.52 55.54a10.06 10.06 0 0 0 7.06 2.92c2.66 0 5.2-1.06 7.08-2.92l69.1-69.12a90.644 90.644 0 0 1-24.56 83.3c-21.74 21.72-52.68 30.94-82.8 24.64-0.1-0.02-0.2-0.02-0.3-0.04-0.36-0.06-0.7-0.08-1.04-0.1-0.32-0.02-0.64-0.06-0.96-0.04-0.3 0-0.6 0.04-0.9 0.08-0.34 0.04-0.7 0.08-1.02 0.16-0.3 0.06-0.56 0.16-0.84 0.24-0.34 0.1-0.68 0.2-0.98 0.34-0.28 0.12-0.52 0.28-0.78 0.42-0.32 0.16-0.64 0.34-0.92 0.54-0.22 0.16-0.42 0.32-0.62 0.5-0.32 0.26-0.62 0.52-0.92 0.82-0.06 0.06-0.12 0.1-0.18 0.16l-63.62 70.28-10.38-10.36a9.96 9.96 0 0 0-7.06-2.94c-2.66 0-5.2 1.06-7.08 2.94l-29.58 29.58-54.88-54.9 108.76-98.44z m-129 228.46a10.006 10.006 0 0 0 0 14.14l16.28 16.3L350.26 616c-26.68 26.6-70.04 26.56-96.72-0.08-26.64-26.66-26.68-70-0.1-96.7l190.66-172.54 57.14 57.16-29.58 29.58z m111.78-83.5l189.82 189.84c12.08 12.08 18.74 28.16 18.74 45.26 0 17.12-6.66 33.2-18.76 45.28-12.1 12.1-28.18 18.76-45.28 18.76s-33.18-6.66-45.26-18.74l-189.82-189.82 90.56-90.58z m-343.68 154.7c-0.06 0.06-0.1 0.14-0.18 0.18-0.04 0.06-0.12 0.1-0.18 0.16-34.48 34.48-34.48 90.6 0 125.1 17.26 17.24 39.9 25.86 62.56 25.86 22.64 0 45.28-8.62 62.54-25.86 0.06-0.06 0.1-0.14 0.16-0.2s0.12-0.1 0.18-0.18l137.26-151.66 166.46 166.44c15.86 15.86 36.96 24.6 59.4 24.6 22.44 0 43.56-8.74 59.42-24.62 15.88-15.86 24.62-36.96 24.62-59.4 0-22.46-8.74-43.56-24.6-59.42l-172.36-172.38 21.84-24.12h254.86v488.18H132.26V329.12h294.26l3.42 3.4-190.18 172.1z m254.36-230.2l-16.38 14.82-14.82-14.82h31.2z m-191.54-97.52c-0.02-0.02-0.06-0.04-0.08-0.06-0.18-0.18-0.38-0.3-0.56-0.46-0.32-0.28-0.66-0.58-1.02-0.8a0.438 0.438 0 0 0-0.1-0.06c-0.54-0.34-1.1-0.64-1.7-0.86l-45-17.32-21.3-45.92 21.54-21.54 45.92 21.3 17.32 44.98c0.4 1.06 1.02 2.06 1.8 2.94 0.14 0.16 0.24 0.32 0.36 0.44 0.04 0.04 0.06 0.08 0.08 0.1l111.8 111.8 0.1 0.1 100.9 100.9-17.26 17.26-212.8-212.8zM84.88 333.86c0-8.04 1.62-15.7 4.52-22.7 8.94-21.54 30.18-36.74 54.92-36.74h227.5l34.7 34.7H122.26c-5.52 0-10 4.48-10 10v508.18c0 5.52 4.48 10 10 10h779.48c5.52 0 10-4.48 10-10V319.12c0-5.52-4.48-10-10-10H654.98l20.62-22.78c5.72 0.9 11.44 1.32 17.12 1.32 18.36 0 36.34-4.56 52.4-13.24h134.56c32.78 0 59.44 26.66 59.44 59.44v526.5H84.88V333.86z m897.3 573.3l-63.34 30.72H105.16l-63.34-30.72v-26.8h940.36v26.8z" fill="#23130D" p-id="1290"></path><path d="M532.64 372.44l-17.26 17.26-212.8-212.8c-0.02-0.02-0.06-0.04-0.08-0.06-0.18-0.18-0.38-0.3-0.56-0.46-0.32-0.28-0.66-0.58-1.02-0.8a0.438 0.438 0 0 0-0.1-0.06c-0.54-0.34-1.1-0.64-1.7-0.86l-45-17.32-21.3-45.92 21.54-21.54 45.92 21.3 17.32 44.98c0.4 1.06 1.02 2.06 1.8 2.94 0.14 0.16 0.24 0.32 0.36 0.44 0.04 0.04 0.06 0.08 0.08 0.1l111.8 111.8 0.1 0.1 100.9 100.9z" fill="#E1E1E5" p-id="1291"></path><path d="M532.64 372.44l-8.84 8.84-212.8-212.8c-0.02-0.02-0.04-0.06-0.08-0.1-0.12-0.12-0.22-0.28-0.36-0.44-0.78-0.88-1.4-1.88-1.8-2.94l-17.32-44.98-45.92-21.3 8.84-8.84 45.92 21.3 17.32 44.98c0.4 1.06 1.02 2.06 1.8 2.94 0.14 0.16 0.24 0.32 0.36 0.44 0.04 0.04 0.06 0.08 0.08 0.1l111.8 111.8 0.1 0.1 100.9 100.9z" opacity=".2" p-id="1292"></path><path d="M756.76 241.08c-21.74 21.72-52.68 30.94-82.8 24.64-0.1-0.02-0.2-0.02-0.3-0.04-0.36-0.06-0.7-0.08-1.04-0.1-0.32-0.02-0.64-0.06-0.96-0.04-0.3 0-0.6 0.04-0.9 0.08-0.34 0.04-0.7 0.08-1.02 0.16-0.3 0.06-0.56 0.16-0.84 0.24-0.34 0.1-0.68 0.2-0.98 0.34-0.28 0.12-0.52 0.28-0.78 0.42-0.32 0.16-0.64 0.34-0.92 0.54-0.22 0.16-0.42 0.32-0.62 0.5-0.32 0.26-0.62 0.52-0.92 0.82-0.06 0.06-0.12 0.1-0.18 0.16l-63.62 70.28-10.38-10.36a9.96 9.96 0 0 0-7.06-2.94c-2.66 0-5.2 1.06-7.08 2.94l-29.58 29.58-54.88-54.9 108.76-98.44c0.1-0.08 0.16-0.18 0.24-0.26 0.22-0.22 0.4-0.44 0.6-0.66 0.24-0.28 0.48-0.56 0.68-0.86 0.16-0.22 0.26-0.44 0.4-0.66 0.2-0.34 0.38-0.68 0.54-1.04 0.1-0.24 0.18-0.48 0.26-0.72 0.12-0.36 0.24-0.72 0.32-1.08 0.06-0.28 0.08-0.56 0.12-0.84 0.04-0.36 0.1-0.72 0.1-1.08 0-0.28-0.02-0.56-0.04-0.84-0.02-0.38-0.04-0.76-0.12-1.14-0.02-0.1 0-0.18-0.02-0.28-6.3-30.12 2.92-61.08 24.64-82.8a90.67 90.67 0 0 1 83.28-24.58l-69.1 69.1a10.006 10.006 0 0 0 0 14.14l55.52 55.54a10.06 10.06 0 0 0 7.06 2.92c2.66 0 5.2-1.06 7.08-2.92l69.1-69.12a90.644 90.644 0 0 1-24.56 83.3z" fill="#E1E1E5" p-id="1293"></path><path d="M504.8 291.74l54.26 54.28-12.28 12.28-54.88-54.9zM602.78 316.44l9.76 9.74-11.66 12.9-10.38-10.36a9.96 9.96 0 0 0-7.06-2.94c-2.66 0-5.2 1.06-7.08 2.94l12.28-12.28c1.88-1.88 4.42-2.94 7.08-2.94 2.64 0 5.2 1.06 7.06 2.94z" opacity=".2" p-id="1294"></path><path d="M939.12 333.86v526.5H84.88V333.86c0-8.04 1.62-15.7 4.52-22.7 8.94-21.54 30.18-36.74 54.92-36.74h227.5l34.7 34.7H122.26c-5.52 0-10 4.48-10 10v508.18c0 5.52 4.48 10 10 10h779.48c5.52 0 10-4.48 10-10V319.12c0-5.52-4.48-10-10-10H654.98l20.62-22.78c5.72 0.9 11.44 1.32 17.12 1.32 18.36 0 36.34-4.56 52.4-13.24h134.56c32.78 0 59.44 26.66 59.44 59.44z" fill="#E1E1E5" p-id="1295"></path><path d="M41.82 880.36v26.8l63.34 30.72h813.68l63.34-30.72v-26.8H41.82z m586.46 38.76H395.72c-5.52 0-10-4.48-10-10s4.48-10 10-10h232.56c5.52 0 10 4.48 10 10s-4.48 10-10 10z" fill="#636368" p-id="1296"></path><path d="M978.14 880.36l-59.3 28.76H638.28c0 5.52-4.48 10-10 10H395.72c-5.52 0-10-4.48-10-10H105.16l-59.3-28.76h-4.04v26.8l63.34 30.72h813.68l63.34-30.72v-26.8h-4.04z" opacity=".2" p-id="1297"></path><path d="M471.66 433.42l29.58-29.58-57.14-57.16-190.66 172.54c-26.58 26.7-26.54 70.04 0.1 96.7 26.68 26.64 70.04 26.68 96.72 0.08l137.68-152.14-16.28-16.3a10.006 10.006 0 0 1 0-14.14z m-169.7 190.28c-31 0-56.2-25.2-56.2-56.2 0-30.98 25.2-56.18 56.2-56.18 30.98 0 56.18 25.2 56.18 56.18 0 31-25.2 56.2-56.18 56.2z" fill="#E1E1E5" p-id="1298"></path><path d="M471.66 447.56a10.006 10.006 0 0 1 0-14.14l-14 14a10.006 10.006 0 0 0 0 14.14l16.28 16.3-130.08 143.74c2.22-1.7 4.36-3.56 6.4-5.6l137.68-152.14-16.28-16.3z m-27.56-100.88l-190.66 172.54a64.022 64.022 0 0 0-5.58 6.38l182.24-164.92 57.14 57.16 14-14-57.14-57.16z" opacity=".2" p-id="1299"></path><path d="M773.26 539.76l-189.82-189.84-90.56 90.58 189.82 189.82c12.08 12.08 28.16 18.74 45.26 18.74 17.1 0 33.18-6.66 45.28-18.76 12.1-12.08 18.76-28.16 18.76-45.28 0-17.1-6.66-33.18-18.74-45.26z m-50.62 71.34c-1.96 1.94-4.52 2.92-7.08 2.92-2.56 0-5.12-0.98-7.06-2.92l-166.06-166.06a10.006 10.006 0 0 1 0-14.14 10.006 10.006 0 0 1 14.14 0l166.06 166.06a10.006 10.006 0 0 1 0 14.14z m31.4-31.4c-1.94 1.94-4.5 2.92-7.06 2.92-2.56 0-5.12-0.98-7.08-2.92l-166.06-166.06a10.006 10.006 0 0 1 0-14.14 10.006 10.006 0 0 1 14.14 0l166.06 166.06a9.97 9.97 0 0 1 0 14.14z" fill="#F9C139" p-id="1300"></path><path d="M338.14 567.5c0 19.96-16.24 36.2-36.18 36.2-19.96 0-36.2-16.24-36.2-36.2 0-19.94 16.24-36.18 36.2-36.18 19.94 0 36.18 16.24 36.18 36.18z" fill="#3594BF" p-id="1301"></path><path d="M891.74 329.12v488.18H132.26V329.12h294.26l3.42 3.4-24.7 22.34-72.84 65.92-45.64 41.32-43.82 39.66-3.18 2.86c-0.06 0.06-0.1 0.14-0.18 0.18-0.04 0.06-0.12 0.1-0.18 0.16a87.4 87.4 0 0 0-15.16 20.3c-18.22 33.54-13.16 76.46 15.16 104.8 17.26 17.24 39.9 25.86 62.56 25.86 14.56 0 29.12-3.56 42.24-10.7a87.4 87.4 0 0 0 20.3-15.16c0.06-0.06 0.1-0.14 0.16-0.2s0.12-0.1 0.18-0.18l2.86-3.16 39.66-43.82 41.32-45.64 53.42-59.04 166.46 166.44c13.72 13.72 31.36 22.12 50.4 24.12 2.96 0.32 5.98 0.48 9 0.48 22.44 0 43.56-8.74 59.42-24.62 15.88-15.86 24.62-36.96 24.62-59.4 0-22.46-8.74-43.56-24.6-59.42l-172.36-172.38 21.84-24.12h254.86z" fill="#3594BF" p-id="1302"></path><path d="M638.28 909.12c0 5.52-4.48 10-10 10H395.72c-5.52 0-10-4.48-10-10s4.48-10 10-10h232.56c5.52 0 10 4.48 10 10z" fill="#23130D" p-id="1303"></path><path d="M84.88 846.334h854.24v14.026H84.88z" opacity=".2" p-id="1304"></path><path d="M516.28 817.3h-108.6L132.26 541.88v-108.6l91.98 91.98c-18.22 33.54-13.16 76.46 15.16 104.8 17.26 17.24 39.9 25.86 62.56 25.86 14.56 0 29.12-3.56 42.24-10.7l172.08 172.08zM153.78 329.12l132.98 132.98-43.82 39.66-110.68-110.68v-61.96zM641.96 817.3h-83.48l-190.78-190.78 39.66-43.82zM379.5 329.12l25.74 25.74-72.84 65.92-91.66-91.66zM867.68 817.3h-138.76L448.68 537.06l53.42-59.04 166.46 166.44c13.72 13.72 31.36 22.12 50.4 24.12l148.72 148.72z" fill="#FFFFFF" opacity=".4" p-id="1305"></path></svg>